<svg width="8e3" height="1e3" version="1.1" viewBox="0 0 8e3 1e3" xmlns="http://www.w3.org/2000/svg"><path d="m817.99 858.53c7.3107-53.217-79.009-40.262-111.43-62.889-31.795-4.7968-57.875-85.998-76.147-23.377-18.393 47.852-38.324 107.32-19.668 156.75 48.256 18.13 6.9822 68.121-29.014 48.073-25.894-15.991-25.319-57.188-28.329-85.691-6.3193-54.217 1.1039-108.38 5.4287-162.29-34.774-16.982-90.636-23.877-123.77-24.977-11.187 44.863-47.157 83.723-46.714 130.65 1.9475 52.323 60.833 63.983 80.516 98.202-21.472 48.467-82.897 14.91-100.77-20.625-43.537-38.905-72.183-87.353-56.356-146.42-6.909-26.471-2.5066-110.34-45.363-62.145-52.919 37.263-110.04 67.789-168.97 94.331-26.117 27.958-26.743 67.815-32.745 103.52 35.896 22.56 12.563 79.316-27.074 55.699-39.221-34.77-18.052-90.45-15.221-134.94 1.0473-46.473 23.159-87.843 59.232-116.6 43.564-38.371 68.022-95.257 63.792-153.36 4.7482-34.407 18.305-75.599-29.836-80.784-61.383-34.536-90.734-107.15-84.356-175.42-5.4433-66.846 38.954-137.93 1.8013-200.92-29.405-22.742-43.269-106.09 15.479-79.038 65.068 40.18 64.278 126.49 49.959 192.88-16.058 67.345-25.211 151.77 33.713 201.72 40.468 36.468 94.829 14.603 140.69 4.372 71.03-9.4428 143.57-1.0541 210.48 24.647 69.662 22.141 148.26 51.31 219.76 20.614 45.917-16.388 48.495-66.357 63.63-105.16 11.803-52.66 38.32 1.127 53.268 21.54 6.0791 18.935 27.035 9.3905 41.866 11.571 18.75 4.7155 31.266-5.5017 42.168-19.588 17.574-13.056 57.478-75.446 56.521-27.673-5.9878 46.519-8.0903 89.586 17.615 130.51 16.318 51.231-5.4703 125.98-67.31 130.53-57.737-14.467-105.68 22.704-122.22 76.995-14.148 17.351-36.41 30.915-44.31 51.442 36.764 29.368 94.916 41.059 113.29 89.292 27.644 25.706 21.412 93.266-26.23 57.901-5.6627-5.5574-9.5124-12.515-13.382-19.338z" fill="#0e1417"/><path d="m859.88 517.79c-7.1768-0.7854-12.885-5.2011-16.36-12.657-1.6108-3.4554-2.1172-6.0323-1.9481-9.9136 0.3013-6.9131 3.6173-12.683 10.09-17.556 6.2635-4.716 10.649-3.9779 18.186 3.0605 5.8732 5.4848 9.0615 11.614 9.6608 18.57 0.9826 11.405-7.9035 19.779-19.628 18.496z" fill="#ff0" stroke-width=".34047"/><path d="m944.33 517.09c-2.2385-0.8593-5.007-3.4876-6.2429-5.9264-1.945-3.8384-2.4518-6.3439-2.4373-12.05 0.017-5.8964 0.6636-10.333 2.167-14.819 2.2919-6.8392 6.5472-10.036 13.36-10.036 5.2567 0 9.0116 2.4793 11.526 7.6103 1.9349 3.9486 2.4973 6.4602 2.4889 11.116-0.017 7.7604-2.5408 14.292-7.5409 19.493-2.6073 2.7118-4.6434 4.0787-7.1807 4.8207-2.4251 0.7095-3.8769 0.6594-6.1401-0.2095z" fill="#ff0" stroke-width=".34047"/><path d="m1897.6 931.86c-51.434-28.423-72.214-63.562-118.66-98.699-45.989-20.906-43.553-105.36-103.3-92.145-45.996 5.4711-98.31 17.691-120.94 63.074-17.389 35.552-69.153 88.536-20.062 118.19 7.1 37.763-38.908 35.925-59.129 21.949-20.996-31.906-11.828-69.733-0.5315-103.46 13.407-46.401 34.964-98.168 58.448-135.77-11.816 34.494-89.467-26.708-120.36 8.3821-33.1 27.065-65.122 55.466-99.771 80.573-23.355 36.007-6.4074 95.663 30.524 118.11 42.413 50.368-64.161 53.091-67.701 5.9035-17.744-48.041-62.403-95.251-45.489-149.28 24.647-20.828 23.324-78.707 51.99-83.392-10.443 28.764-74.892 56.397-111.22 70.716-49.193 10.626-61.072 64.648-70.982 106.74 12.891 24.03 25.081 72.589-23.209 63.749-39.32-19.487-29.63-71.756-19.886-107.08 11.714-48.433 20.428-102.29 65.039-132.08 41.509-40.026 15.387-101.56 24.378-151.54 31.28-62.226-50.27-58.812-74.316-100.64-53.752-60.979-45.195-149.27-31.923-223.3 12.512-47.402 12.368-96.909-21.089-136.02-40.124-40.692 16.274-89.091 48.993-41.239 57.647 59.087 36.512 143.74 22.234 215.75-13.018 62.531-1.0911 142.03 61.67 173.2 54.307 24.449 108.2-17.209 163.96-11.378 95.927-9.678 181.84 40.519 273.61 57.327 54.713 10.187 125.75 5.6235 156.09-48.326 10.932-21.932 20.492-121.25 53.116-73.904 13.924 11.141 17.962 40.446 37.126 41.179 16.48-1.3796 35.238 2.7007 50.359-1.9335 23.075-22.492 44.304-47.18 69.726-67.048 16.981 39.111-18.394 88.276 11.308 124.04 24.258 46.887 23.315 119.74-26.561 149.04-39.131 24.614-109.83-10.837-130.86 40.127-4.9755 28.894-6.4445 58.262-9.6455 87.392 18.483 28.29 36.98 56.526 47.701 88.686 29.781 31.342 31.361 74.427 80.43 76.348 49.387 19.397 2.9996 62.522-31.074 46.736z" fill="#0e1417"/><path d="m1859.9 517.79c-7.1768-0.7854-12.885-5.2011-16.36-12.657-1.6108-3.4554-2.1172-6.0323-1.9481-9.9136 0.3013-6.9131 3.6173-12.683 10.09-17.556 6.2635-4.716 10.649-3.9779 18.186 3.0605 5.8732 5.4848 9.0615 11.614 9.6608 18.57 0.9826 11.405-7.9035 19.779-19.628 18.496z" fill="#ff0" stroke-width=".34047"/><path d="m1944.3 517.09c-2.2385-0.8593-5.007-3.4876-6.2429-5.9264-1.945-3.8384-2.4518-6.3439-2.4373-12.05 0.017-5.8964 0.6636-10.333 2.167-14.819 2.2919-6.8392 6.5472-10.036 13.36-10.036 5.2567 0 9.0116 2.4793 11.526 7.6103 1.9349 3.9486 2.4973 6.4602 2.4889 11.116-0.017 7.7604-2.5408 14.292-7.5409 19.493-2.6073 2.7118-4.6434 4.0787-7.1807 4.8207-2.4251 0.7095-3.8769 0.6594-6.1401-0.2095z" fill="#ff0" stroke-width=".34047"/><path d="m2813.6 967.31c-47.753-14.015-72.974-55.536-89.682-99.193-19.984-43.112-58.131-81.81-50.535-132.92-39.613-21.748-96.438 23.566-120.32 58.743-27.792 46.492-60.727 89.82-95.813 129.08-16.746 43.464-59.166 4.8689-51.274-28.251 15.067-26.448 56.551-27.371 61.94-64.649 20.047-39.65 33.958-93.032 55.984-125.42 21.27 26.52-58.752-2.2452-75.382-2.1756-49.088 2.8856-96.406 23.276-137.44 49.678-39.082 16.567-87.834 37.583-78.204 89.471-4.1006 32.172 61.814 90.279-4.4548 90.414-52.17-16.302-41.903-76.165-53.135-118.73-28.022-60.495 35.458-91.556 57.722-138.35 11.098-27.762 61.075-14.642 34.129 12.7 17.94 53.332-30.376 83.9-56.959 116.26-4.2136 35.186 12.779 66.829 25.049 98.552 38.218 2.889 53.478 54.269 9.0217 62.9-50.565-7.0571-63.63-61.65-81.339-101.03-18.444-40.042-36.235-88.124-6.4312-127.66 32.031-65.022-14.181-131.5-10.604-197.5 12.486-36.016 0.9746-62.909-36.946-71.66-57.376-35.946-83.57-105.66-77.707-171.32-5.4432-66.846 38.954-137.93 1.8014-200.92-29.405-22.742-43.269-106.09 15.479-79.038 62.83 38.537 64.541 121.67 51.173 186.25-15.14 67.106-28.341 149.35 26.384 202.83 37.777 40.679 95.268 23.834 141.27 10.866 72.652-11.102 147.4-2.5841 216.01 23.671 69.662 22.141 148.26 51.31 219.76 20.614 45.918-16.388 48.495-66.357 63.63-105.16 11.778-52.616 38.276 1.0317 53.207 21.452 6.0934 18.959 27.02 9.5222 41.901 11.659 18.688 4.6542 31.238-5.3976 42.1-19.492 17.594-13.056 57.552-75.564 56.615-27.768-5.9878 46.519-8.0903 89.586 17.615 130.51 16.318 51.231-5.4703 125.98-67.31 130.53-57.737-14.467-105.68 22.704-122.22 76.995-10.198 26.272-30.863 50.09-26.52 79.771-3.489 51.529 20.378 100.17 37.372 147.13 23.342 11.591 95.888 23.236 53.826 58.908-11.82 8.6505-26.711 5.797-39.717 2.2624z" fill="#0e1417"/><path d="m2859.9 508.52c-7.1768-0.44995-12.885-2.9797-16.36-7.2514-1.6108-1.9796-2.1172-3.4559-1.9481-5.6795 0.3013-3.9605 3.6173-7.2661 10.09-10.058 6.2635-2.7018 10.649-2.2789 18.186 1.7534 5.8732 3.1422 9.0615 6.6534 9.6608 10.639 0.9826 6.5341-7.9035 11.332-19.628 10.597z" fill="#ff0" stroke-width=".2577"/><path d="m2944.3 508.12c-2.2385-0.4923-5.007-1.998-6.2429-3.3952-1.945-2.199-2.4518-3.6344-2.4373-6.9032 0.017-3.378 0.6636-5.9198 2.167-8.4895 2.2919-3.9182 6.5472-5.7494 13.36-5.7494 5.2567 0 9.0116 1.4204 11.526 4.3599 1.9349 2.2621 2.4973 3.701 2.4889 6.3681-0.017 4.4459-2.5408 8.188-7.5409 11.167-2.6073 1.5536-4.6434 2.3367-7.1807 2.7618-2.4251 0.40647-3.8769 0.37777-6.1401-0.12002z" fill="#ff0" stroke-width=".2577"/><path d="m3741.2 961.68c-35.51-28.683-61.327-67.201-67.254-112.88-20.962-39.939-23.484-88.957-19.116-127.86-45.671 43.31-62.766 105.59-79.181 164.39-10.254 51.672-78.666 58.161-121.77 58.695-32.093-28.034 8.3325-52.729 37.148-50.78 50.378 9.438 42.052-60.378 45.078-92.041-8.7389-36.056 52.482-87.824-14.046-84.706-46.032-9.887-93.014-21.177-138.2-1.1158-45.976 14.103-93.845 24.555-134.18 51.907-39.433 15.715-88.629 35.668-80.127 87.753-4.7978 32.075 59.84 91.599-6.4159 90.296-51.803-17.43-40.24-77.056-50.546-119.86-26.453-61.881 41.632-92.583 54.591-146.41 14.671-31.313 21.228-90.731 67.887-57.887 48.811 20.066 100.59 38.131 142.37 70.936-23.166 36.5-50.585 72.476-84.056 101.61-47.691 31.774 0.8479 82.728 27.865 110.62 14.596 20.377 69.23 1.5499 55.786 43.837-18.218 46.693-81.001 14.2-100.13-16.645-29.246-41.579-59.977-84.814-73.895-134.09 17.579-36.279 27.007-79.089-3.3873-112.63-31.778-45.467-65.74-98.007-51.945-156.33 27.297-60.211-62.6-53.155-80.532-99.783-48.281-61.099-39.254-145.25-26.674-216.84 12.512-47.402 11.772-100.49-21.686-139.6-40.124-40.692 16.274-89.091 48.993-41.239 57.646 59.079 37.102 147.25 22.83 219.33-13.136 62.448-1.0225 142.07 61.67 173.2 54.307 24.449 108.2-17.209 163.96-11.378 95.927-9.678 181.84 40.519 273.61 57.327 54.713 10.187 125.75 5.6235 156.09-48.326 10.932-21.932 20.492-121.25 53.116-73.904 13.973 11.087 17.925 40.6 37.19 41.179 16.454-1.4063 35.227 2.7426 50.31-1.9487 23.071-22.485 44.295-47.168 69.711-67.033 16.981 39.111-18.394 88.276 11.308 124.04 24.258 46.887 23.315 119.74-26.561 149.04-43.079 21.089-112.41-9.9969-125.93 55.525-19.39 35.929-67.296 50.546-70.06 97.502-13.634 41.999-16.7 85.886-11.675 129.78-12.597 45.325 107.18 50.295 47.19 92.141-13.33 6.0722-27.332 0.25655-39.349-5.8433z" fill="#0e1417"/><path d="m3859.9 498.59c-7.1768-0.0905-12.885-0.59961-16.36-1.4592-1.6108-0.39836-2.1172-0.69544-1.9481-1.1429 0.3013-0.79699 3.6173-1.4622 10.09-2.024 6.2635-0.54369 10.649-0.4586 18.186 0.35283 5.8732 0.63233 9.0615 1.3389 9.6608 2.1409 0.9826 1.3149-7.9035 2.2803-19.628 2.1324z" fill="#ff0" stroke-width=".1156"/><path d="m3956.5 498.51c2.2385-0.0991 5.007-0.40207 6.2429-0.68323 1.945-0.44252 2.4518-0.73137 2.4373-1.3892-0.017-0.67978-0.6636-1.1913-2.167-1.7084-2.2919-0.78847-6.5472-1.157-13.36-1.157-5.2567 0-9.0116 0.28583-11.526 0.87736-1.9349 0.45523-2.4973 0.74478-2.4889 1.2815 0.017 0.89468 2.5408 1.6477 7.5409 2.2473 2.6073 0.31264 4.6434 0.47022 7.1807 0.55577 2.4251 0.0818 3.8769 0.076 6.1401-0.0242z" fill="#ff0" stroke-width=".1156"/><path d="m4618 942.93c-28.354-44.576-43.99-96.325-28.356-148.19 0.1845-46.388 9.7226-118.38 67.841-121.43 37.431-3.206 104.91-1.4734 83.569 53.566 11.889 65.837 67.587 111.25 85.878 174.71 31.805 26.91 13.634 93.018-28.395 55.877-31.895-13.12-1.0726-57.149-31.528-75.171-46.703-43.129-101.23-77.197-152.31-114.92-39.608-30.552-79.114-56.618-130.88-57.743-66.946-17.244-136.11 1.1987-203.76 4.6088-51.003-2.8692-83.252 43.251-127.03 62.493-47.712 25.407-83.711 85.44-57.724 138.31-8.4374 60.35-84.507-6.6448-60.327-44.735 9.8054-51.994 4.4836-114.57 54.818-145.91 25.051-54.855 39.564-113.8 58.586-170.88 42.555 3.8776 81.882 28.753 121.57 44.772 41.483 20.728 85.459 38.574 121.97 67.581-3.6685 43.321-22.248 85.737-33.182 128.35-9.9927 45.159 1.6538 91.024 28.571 128.1 11.314 22.642 72.248 20.879 41.598 58.807-36.095 37.825-82.653-19.054-98.755-52.637-26.588-47.331-60.608-95.365-61.204-151.55-27.136-79.247-117.62-127.02-123.74-215.15 0.242-36.157 23.807-84.491-29.649-90.142-61.415-34.532-90.53-107.17-84.356-175.42-5.4432-66.846 38.954-137.93 1.8014-200.92-29.405-22.742-43.269-106.09 15.479-79.038 65.068 40.18 64.278 126.49 49.959 192.88-16.058 67.345-25.211 151.77 33.713 201.72 40.468 36.468 94.829 14.603 140.69 4.372 71.03-9.4428 143.57-1.0541 210.48 24.647 69.662 22.141 148.26 51.31 219.76 20.614 45.918-16.388 48.495-66.357 63.63-105.16 11.84-52.727 38.386 1.2705 53.36 21.673 6.0575 18.899 27.057 9.1929 41.814 11.438 18.842 4.8076 31.309-5.6585 42.27-19.731 17.545-13.055 57.367-75.27 56.379-27.529-5.9878 46.519-8.0903 89.586 17.615 130.51 16.318 51.231-5.4703 125.98-67.31 130.53-57.737-14.467-105.68 22.704-122.22 76.995-31.515 20.021-64.86 38.001-95.247 59.28-30.451 33.982-48.65 75.647-62.65 118.73-19.461 38.344 91.653 78.034 23.75 101.58-14.451 2.3907-26.455-6.8713-36.469-15.891z" fill="#0e1417"/><path d="m4859.9 504.42c-7.1768-0.30165-12.885-1.9976-16.36-4.8615-1.6108-1.3272-2.1172-2.3169-1.9481-3.8076 0.3013-2.6552 3.6173-4.8714 10.09-6.7432 6.2635-1.8113 10.649-1.5278 18.186 1.1755 5.8732 2.1066 9.0615 4.4606 9.6608 7.1326 0.9826 4.3806-7.9035 7.5969-19.628 7.1042z" fill="#ff0" stroke-width=".211"/><path d="m4944.3 504.16c-2.2385-0.33005-5.007-1.3395-6.2429-2.2762-1.945-1.4743-2.4518-2.4366-2.4373-4.628 0.017-2.2647 0.6636-3.9688 2.167-5.6916 2.2919-2.6268 6.5472-3.8545 13.36-3.8545 5.2567 0 9.0116 0.95226 11.526 2.923 1.9349 1.5166 2.4973 2.4813 2.4889 4.2693-0.017 2.9806-2.5408 5.4894-7.5409 7.4868-2.6073 1.0416-4.6434 1.5666-7.1807 1.8516-2.4251 0.2725-3.8769 0.25326-6.1401-0.0805z" fill="#ff0" stroke-width=".211"/><path d="m5519 937.98c-14.951-47.074-24.746-101.97 10.205-142.79 14.263-52.829 60.977-84.422 105.72-110.29 49.416-28.325 100.67-56.603 152.92-77.331-6.8511 45.818-25.126 95.041 7.3777 137.46 27.816 55.675 54.28 112.23 84.059 166.76 11.904 30.404 84.792 52.564 35.968 82.885-28.104 11.673-45.81-4.1037-64.942-23.601-39.58-30.652-52.44-82.979-82.662-121.9-20.652-46.523-62.274-72.254-110.15-84.693-44.494-13.503-86.449-33.862-129.52-46.95-73.092-14.347-146.57-26.497-220.66-34.464-45.487 37.42-109.16 53.132-143.32 103.38-20.805 42.631-14.643 95.574-41.617 135.04-47.606 31.685-48.583-39.797-15.255-58.235 9.0973-47.946-6.9505-99.993 11.748-145.85 52.71-24.109 30.948-85.589 52.618-127.63 53.424 5.5252 102.67 35.51 151.76 56.652 32.458 11.973 60.843 31.063 25.243 59.41-19.734 50.267-80.45 79.274-83.209 135.66 1.4179 32.203 16.542 65.393 33.908 90.553 50.094-2.9822 43.584 73.728-2.7862 57.733-53.156-16.075-64.224-80.822-89.193-123.71-29.904-43.316-6.5759-91.53-9.1045-137.41-17.687-66.342-66.431-127.77-50.401-200.16 27.296-60.211-62.602-53.155-80.534-99.783-50.529-65.042-38.572-153.86-24.375-229.22 16.098-50.754-2.2097-100.94-31.802-142.23-29.145-64.461 63.408-50.697 74.37-3.7219 43.448 72.517 6.9351 156.14 1.1865 233.01-7.9992 64.193 32.19 146.26 104.88 145.14 44.67-3.7182 87.198-23.9 132.97-19.565 122.45-10.892 230.82 81.209 353.71 57.45 44.852-8.6467 76.107-46.567 80.255-91.322 6.3462-44.572 34.844-61.529 53.803-12.595 8.3501 17.726 20.775 27.651 40.912 22.813 15.73-0.85457 34.324 5.1528 43.307-11.866 19.708-19.278 37.94-40.373 59.902-57.116 16.981 39.111-18.394 88.276 11.308 124.04 24.258 46.887 23.317 119.74-26.561 149.04-45.44 21.052-115.12-8.6943-136.08 55.333-7.1699 27.28-28.859 40.706-51.941 53.063-55.009 31.971-107.2 68.767-157.39 107.62-30.729 29.796-82.289 74.785-24.905 107.63 30.426 43.469-32.069 53.754-51.733 21.761z" fill="#0e1417"/><path d="m5859.9 517.79c-7.1768-0.7854-12.885-5.2011-16.36-12.657-1.6108-3.4554-2.1172-6.0323-1.9481-9.9136 0.3013-6.9131 3.6173-12.683 10.09-17.556 6.2635-4.716 10.649-3.9779 18.186 3.0605 5.8732 5.4848 9.0615 11.614 9.6608 18.57 0.9826 11.405-7.9035 19.779-19.628 18.496z" fill="#ff0" stroke-width=".34047"/><path d="m5944.3 517.09c-2.2385-0.8593-5.007-3.4876-6.2429-5.9264-1.945-3.8384-2.4518-6.3439-2.4373-12.05 0.017-5.8964 0.6636-10.333 2.167-14.819 2.2919-6.8392 6.5472-10.036 13.36-10.036 5.2567 0 9.0116 2.4793 11.526 7.6103 1.9349 3.9486 2.4973 6.4602 2.4889 11.116-0.017 7.7604-2.5408 14.292-7.5409 19.493-2.6073 2.7118-4.6434 4.0787-7.1807 4.8207-2.4251 0.7095-3.8769 0.6594-6.1401-0.2095z" fill="#ff0" stroke-width=".34047"/><path d="m6469.9 944.39c-4.6061-50.774 2.3177-105.55 36.868-145.37 17.56-51.631 59.086-81.858 100.16-112.87 50.21-46.277 106.75-91.962 175.61-104.87-34.344 110.94-14.467 232.84 29.296 338.4 6.5926 43.373 107.89 8.5546 70.378 64.552-46.29 4.246-105.37-1.4617-126.06-50.429-14.972-48.037-27.145-98.042-69.031-131.1-25.607-51.987-84.672-57.712-130.58-77.193-53.491-15.125-109.69-22.512-164.58-32.611-41.876-7.7781-90.507-25.294-101 31.791-29.846 45.541-71.814 95.968-54.498 154.35 9.5748 25.825 63.658 74.572 4.0103 78.96-53.736-9.9917-50.651-70.65-66.859-111.58-30.007-54.041 25.957-102.36 10.32-158.93 41.712-21.28 93.8-18.544 140.29-24.255 21.771-2.5872 48.879-3.8434 20.936 18.407-21.636 46.801-62.017 78.989-90.744 120.25-27.409 36.095-29.006 81.836-22.438 124.8 15.809 21.28 50.93 60.875-0.5285 70.19-53.871-8.8841-51.858-77.57-56.782-120.4-6.8042-51.268-3.7376-103.14 14.01-151.23-4.3793-59.865-50.128-110.63-43.284-172.81 4.7483-34.407 18.305-75.599-29.836-80.784-61.415-34.532-90.53-107.17-84.356-175.42-5.4432-66.846 38.954-137.93 1.8014-200.92-29.405-22.742-43.269-106.09 15.479-79.038 65.068 40.18 64.278 126.49 49.959 192.88-16.058 67.345-25.211 151.77 33.713 201.72 40.468 36.468 94.829 14.603 140.69 4.372 71.03-9.4428 143.57-1.0541 210.48 24.647 69.662 22.141 148.26 51.31 219.76 20.614 45.918-16.388 48.495-66.357 63.63-105.16 11.848-52.741 38.4 1.3008 53.38 21.701 6.0529 18.891 27.062 9.1512 41.803 11.41 18.861 4.827 31.318-5.6916 42.291-19.762 17.539-13.055 57.343-75.232 56.349-27.499-5.9878 46.519-8.0903 89.586 17.615 130.51 16.318 51.231-5.4703 125.98-67.31 130.53-57.737-14.467-105.68 22.704-122.22 76.995-75.511 45.565-150.69 92.293-222.52 143.19-25.367 25.515-90.933 70.003-37.294 101.32 7.5055 36.478-38.794 40.43-58.906 20.657z" fill="#0e1417"/><path d="m6859.9 517.79c-7.1768-0.7854-12.885-5.2011-16.36-12.657-1.6108-3.4554-2.1172-6.0323-1.9481-9.9136 0.3013-6.9131 3.6173-12.683 10.09-17.556 6.2635-4.716 10.649-3.9779 18.186 3.0605 5.8732 5.4848 9.0615 11.614 9.6608 18.57 0.9826 11.405-7.9035 19.779-19.628 18.496z" fill="#ff0" stroke-width=".34047"/><path d="m6944.3 517.09c-2.2385-0.8593-5.007-3.4876-6.2429-5.9264-1.945-3.8384-2.4518-6.3439-2.4373-12.05 0.017-5.8964 0.6636-10.333 2.167-14.819 2.2919-6.8392 6.5472-10.036 13.36-10.036 5.2567 0 9.0116 2.4793 11.526 7.6103 1.9349 3.9486 2.4973 6.4602 2.4889 11.116-0.017 7.7604-2.5408 14.292-7.5409 19.493-2.6073 2.7118-4.6434 4.0787-7.1807 4.8207-2.4251 0.7095-3.8769 0.6594-6.1401-0.2095z" fill="#ff0" stroke-width=".34047"/><path d="m7494.9 875.79c54.51-25.552 51.699-85.169 60.381-134.31 31.635-41.899 90.96-46.769 139.46-51.734 28.899-5.8972 66.559 6.9219 32.61 36.068-29.889 50.44 2.7216 107.73 11.069 159.56 22.36 19.934 103.48 42.251 47.981 74.293-27.369 4.7558-54.444-2.9421-77.22-18.226-32.55-46.285-30.438-109.88-57.451-160.78-0.3838-59.123-68.893-38.052-101.22-58.161-54.644-12.506-113.08-14.975-161.14-47.165-49.979-42.589-41.274 55.203-63.974 83.809-14.087 48.667 24.54 104.21 73.332 113.07 43.724 42.445-55.262 64.278-71.726 22.272-32.762-39.34-95.903-70.956-84.988-130.77 10.005-24.861-33.149-97.614 18.263-64.67 13.365 36.761-57.806 74.822-75.677 109.97-18.58 34.385-30.903 88.592-4.578 119 49.747-6.7746 49.044 70.232 1.5959 57.782-54.886 3.2364-63.737-55.172-70.874-96.775-8.127-46.94-25.688-100.04 4.9708-142.44 32.214-70.631 26.052-149.63 33.066-224.78 19.797-56.628-72.321-49.688-86.525-99.793-45.014-64.856-33.006-149.61-19.443-222.53 16.099-50.754-2.2101-100.94-31.802-142.23-29.054-57.416 53.963-56.015 68.87-12.019 48.851 68.781 16.737 154.41 7.5682 229.86-10.78 64.517 22.355 150.04 95.646 156.27 47.857 0.4668 92.665-24.523 141.33-19.254 122.46-10.892 230.82 81.208 353.71 57.45 44.852-8.6469 76.106-46.567 80.256-91.322 6.3437-44.518 34.819-61.571 53.777-12.632 8.3803 15.844 18.39 28.57 38.035 22.85 16.458-1.3577 36.558 6.0123 46.147-11.801 19.729-19.3 37.981-40.418 59.965-57.181 16.981 39.111-18.394 88.276 11.308 124.04 24.258 46.887 23.315 119.74-26.561 149.04-42.854 21.362-110.12-9.6541-127.96 52.482-26.638 52.52-86.056 73.962-135.62 99.298-25.011 11.338-53.306 20.405-64.944 48.187-19.859 42.039-33.699 87.794-76.129 113.79-20.306 37.748-103.23 32.719-61.759-18.572 5.948-5.2508 13.164-8.5932 20.245-11.965z" fill="#0e1417"/><path d="m7859.9 517.79c-7.1768-0.7854-12.885-5.2011-16.36-12.657-1.6108-3.4554-2.1172-6.0323-1.9481-9.9136 0.3013-6.9131 3.6173-12.683 10.09-17.556 6.2635-4.716 10.649-3.9779 18.186 3.0605 5.8732 5.4848 9.0615 11.614 9.6608 18.57 0.9826 11.405-7.9035 19.779-19.628 18.496z" fill="#ff0" stroke-width=".34047"/><path d="m7944.3 517.09c-2.2385-0.8593-5.007-3.4876-6.2429-5.9264-1.945-3.8384-2.4518-6.3439-2.4373-12.05 0.017-5.8964 0.6636-10.333 2.167-14.819 2.2919-6.8392 6.5472-10.036 13.36-10.036 5.2567 0 9.0116 2.4793 11.526 7.6103 1.9349 3.9486 2.4973 6.4602 2.4889 11.116-0.017 7.7604-2.5408 14.292-7.5409 19.493-2.6073 2.7118-4.6434 4.0787-7.1807 4.8207-2.4251 0.7095-3.8769 0.6594-6.1401-0.2095z" fill="#ff0" stroke-width=".34047"/></svg>
