<?xml version="1.0" encoding="UTF-8" standalone="no"?>
<!-- Created with Inkscape (http://www.inkscape.org/) -->

<svg
   width="300mm"
   height="300mm"
   viewBox="0 0 300 300"
   version="1.1"
   id="svg1"
   xml:space="preserve"
   inkscape:version="1.4.2 (2aeb623e1d, 2025-05-12)"
   sodipodi:docname="logo.svg"
   inkscape:export-filename="logo.png"
   inkscape:export-xdpi="27.093332"
   inkscape:export-ydpi="27.093332"
   xmlns:inkscape="http://www.inkscape.org/namespaces/inkscape"
   xmlns:sodipodi="http://sodipodi.sourceforge.net/DTD/sodipodi-0.dtd"
   xmlns="http://www.w3.org/2000/svg"
   xmlns:svg="http://www.w3.org/2000/svg"><sodipodi:namedview
     id="namedview1"
     pagecolor="#ffffff"
     bordercolor="#000000"
     borderopacity="0.25"
     inkscape:showpageshadow="2"
     inkscape:pageopacity="0.0"
     inkscape:pagecheckerboard="0"
     inkscape:deskcolor="#d1d1d1"
     inkscape:document-units="mm"
     inkscape:zoom="0.32445669"
     inkscape:cx="-243.48396"
     inkscape:cy="949.27925"
     inkscape:window-width="1920"
     inkscape:window-height="1043"
     inkscape:window-x="0"
     inkscape:window-y="0"
     inkscape:window-maximized="1"
     inkscape:current-layer="layer1" /><defs
     id="defs1" /><g
     inkscape:label="Layer 1"
     inkscape:groupmode="layer"
     id="layer1"><path
       style="fill:#000000;stroke-width:1.24053"
       d="m 45.861529,252.50851 c -6.890851,-1.03217 -12.064029,-3.51222 -16.76757,-8.03849 -6.48919,-6.24462 -9.635911,-14.22477 -9.632375,-24.42788 0.0025,-6.75486 1.246708,-11.47564 4.522788,-17.15824 1.990915,-3.45336 6.14435,-7.91153 9.153031,-9.82459 l 1.825206,-1.16054 v -51.5556 c 0,-50.138487 0.01762,-51.588363 0.641314,-52.747477 0.352724,-0.655524 1.144995,-1.645509 1.760604,-2.199954 2.328544,-2.097231 1.883537,-2.043757 17.007857,-2.043757 11.379101,0 13.823416,-0.0778 14.215013,-0.453012 0.562922,-0.539248 0.913973,-8.285449 0.915456,-20.199839 0.001,-8.29523 0.146342,-9.048944 2.064251,-10.706425 2.333628,-2.016749 0.575537,-1.874008 25.252858,-2.050302 l 22.483508,-0.160624 0.16767,-7.870525 c 0.18702,-8.778309 0.38187,-9.632518 2.70493,-11.857865 2.49891,-2.393796 0.75915,-2.263668 30.15952,-2.255801 21.12829,0.0057 26.57346,0.09196 27.58331,0.437183 1.85492,0.63411 3.46903,1.937244 4.51909,3.648433 l 0.9297,1.515032 0.16768,8.191772 0.16767,8.191771 19.63308,0.160624 c 17.97792,0.147081 19.70873,0.208113 20.53027,0.723932 1.67685,1.052835 3.23473,2.799867 3.57702,4.011323 0.19571,0.692672 0.38656,6.739174 0.44749,14.177082 l 0.10621,12.96928 0.77784,0.603351 c 0.73336,0.56889 1.58153,0.603369 14.83878,0.603369 13.17784,0 14.13911,0.03853 15.30518,0.61308 1.4638,0.721271 2.76692,1.997822 3.63722,3.563112 0.60144,1.081726 0.62848,3.085638 0.71297,52.845737 l 0.0878,51.72137 1.44502,0.87574 c 2.26099,1.37024 5.50444,4.81036 6.50094,6.89516 1.34866,2.82155 1.37743,4.571 0.12637,7.67881 -0.57424,1.42644 -1.72015,3.52079 -2.54644,4.65412 -0.82629,1.13332 -1.50396,2.18532 -1.50596,2.33776 -0.003,0.15243 0.69721,1.16435 1.55377,2.24871 3.09946,3.92373 4.66938,8.09825 5.03029,13.3758 0.27071,3.95836 -0.28879,7.12555 -1.749,9.90073 -3.19245,6.06733 -8.87075,10.37375 -16.24063,12.31681 l -2.85048,0.75154 -103.28821,0.0505 c -81.229837,0.0397 -103.861151,-0.0352 -105.971019,-0.35128 z m 12.743355,-8.07154 c 3.639918,-0.93303 7.230127,-2.77145 9.653998,-4.9435 1.289853,-1.15583 2.250975,-2.28485 2.250975,-2.64419 0,-0.3449 -0.404766,-1.13544 -0.899459,-1.75674 -1.29538,-1.62689 -6.199739,-5.57039 -6.92984,-5.57215 -0.340581,-8.3e-4 -1.295759,0.56894 -2.122606,1.26615 -1.966351,1.65805 -4.307292,2.41326 -7.486372,2.41516 -4.693756,0.003 -8.280759,-2.33136 -10.507513,-6.83758 -0.993226,-2.00995 -1.059718,-2.36949 -1.050351,-5.67948 0.0089,-3.26298 0.08885,-3.69487 1.039591,-5.63703 2.037559,-4.16243 4.762732,-6.06948 9.058998,-6.3394 3.229576,-0.20291 5.494011,0.50416 8.111095,2.53266 1.175565,0.9112 2.370054,1.57323 2.838511,1.57323 1.210877,0 7.960671,-6.28964 7.953332,-7.41114 -0.0076,-1.10694 -1.947061,-3.22331 -4.442138,-4.84642 -6.145237,-3.99761 -14.555101,-4.89422 -22.16822,-2.36342 -8.048836,2.67566 -13.598642,9.86989 -15.35026,19.89865 -0.717856,4.10999 0.275992,10.19911 2.372513,14.53603 3.522983,7.28767 9.324292,11.33993 17.78488,12.42283 2.105152,0.26945 7.834026,-0.086 9.892866,-0.61366 z m 197.457426,-0.16775 c 6.931,-2.2156 11.30669,-7.66108 11.29479,-14.05614 -0.007,-4.00569 -1.25338,-6.78527 -4.2914,-9.57381 -1.87707,-1.72293 -4.07877,-2.75859 -10.10281,-4.75232 -7.43186,-2.45966 -8.9139,-3.53457 -7.94284,-5.7609 0.49065,-1.12491 2.06334,-2.04242 4.023,-2.34705 1.50272,-0.2336 4.74397,0.61186 7.56742,1.97392 2.82987,1.36516 3.32865,1.39322 4.44773,0.25028 1.98029,-2.02249 4.29077,-5.34414 4.29077,-6.16856 0,-1.15659 -0.47022,-1.66164 -2.96925,-3.18922 -5.82172,-3.5586 -13.86743,-4.53885 -20.29341,-2.47245 -3.02137,0.97158 -4.83335,2.07039 -6.82182,4.1369 -4.33694,4.50713 -5.04291,11.68797 -1.61747,16.45235 2.04665,2.84666 5.03883,4.49182 12.24189,6.73085 6.33316,1.96862 8.72883,3.41306 8.72883,5.26292 0,0.67719 -0.33144,1.22383 -1.16933,1.92857 -2.66246,2.23932 -5.51098,2.0185 -11.85457,-0.91905 -2.28679,-1.05896 -4.4171,-1.92537 -4.73403,-1.92537 -0.52977,0 -5.03266,5.24283 -6.01863,7.00765 -0.66079,1.18274 -0.14512,1.8763 2.75334,3.70318 3.48544,2.19688 7.62596,3.70099 12.13641,4.40877 2.65594,0.41679 7.98082,0.0608 10.33138,-0.69052 z m -169.223874,-0.6864 c 0.149225,-0.21567 0.729301,-1.7697 1.289066,-3.45339 l 1.017761,-3.06127 h 7.837014 7.837023 l 0.98736,3.05185 c 0.54306,1.6785 1.14185,3.23254 1.33066,3.4534 0.25139,0.29405 1.95111,0.40155 6.3491,0.40155 5.25352,0 6.03218,-0.0659 6.21652,-0.5261 0.32089,-0.80105 -2.8093,-10.61104 -10.36676,-32.48932 -3.09875,-8.97068 -4.53496,-12.70698 -4.97026,-12.93013 -0.81604,-0.41837 -13.927052,-0.40994 -14.745132,0.01 -0.420835,0.21575 -1.028243,1.54324 -1.825342,3.98923 -0.657047,2.01623 -3.360015,9.92998 -6.006603,17.58611 -7.833013,22.65959 -8.051159,23.34672 -7.583219,23.88683 0.547083,0.63148 12.200308,0.70691 12.632812,0.0818 z m 5.995045,-17.49603 c -0.122572,-0.30609 0.75704,-3.39033 2.026583,-7.10553 l 2.243243,-6.56466 0.630914,1.56405 c 0.547055,1.3561 2.337329,6.8529 3.396809,10.42944 0.62308,2.10334 0.41279,2.21759 -4.082023,2.21759 -3.439064,0 -4.029186,-0.0757 -4.215526,-0.54089 z m 50.045189,17.50268 c 0.30227,-0.28957 0.40241,-4.38876 0.40241,-16.47269 0,-14.04024 0.0664,-16.17805 0.52205,-16.80117 0.50233,-0.68703 0.72377,-0.71397 5.86865,-0.71397 6.30625,0 6.48246,-0.0789 6.87389,-3.08014 0.25392,-1.94676 0.0222,-6.62991 -0.37732,-7.62589 -0.12946,-0.32273 -0.60189,-0.72028 -1.04985,-0.88343 -0.46073,-0.1678 -8.53104,-0.29663 -18.58152,-0.29663 h -17.76703 l -0.82313,0.78851 c -0.79211,0.75878 -0.82313,0.9509 -0.82313,5.0966 0,3.87197 0.0704,4.3938 0.69503,5.15455 l 0.69505,0.84643 h 5.12162 c 5.43298,0 5.74358,0.0832 6.34261,1.69851 0.11712,0.31579 0.221,7.52702 0.23087,16.02499 0.0114,9.63886 0.14395,15.67633 0.35288,16.05032 0.30707,0.54962 0.81657,0.5995 6.12471,0.5995 4.05602,0 5.91028,-0.11547 6.19221,-0.38549 z m 31.52303,0 c 0.28426,-0.27232 0.40241,-2.14718 0.40241,-6.38559 0,-4.78257 0.0963,-6.07667 0.47474,-6.37751 0.27972,-0.22238 1.2756,-0.3375 2.42428,-0.28027 l 1.94955,0.0971 4.28468,6.10367 c 2.35658,3.35702 4.60235,6.35665 4.9906,6.66586 0.61215,0.4875 1.47362,0.56217 6.48544,0.56217 5.31707,0 5.82719,-0.0505 6.3752,-0.63053 0.73453,-0.77751 0.66064,-0.96394 -1.74025,-4.39063 -4.78377,-6.82771 -6.12921,-8.95396 -6.12921,-9.68623 0,-0.55806 0.66772,-1.37703 2.31097,-2.83444 4.09637,-3.63307 5.73747,-7.15401 5.73747,-12.30957 0,-4.3148 -1.15672,-7.41977 -3.93168,-10.55369 -2.09922,-2.37078 -6.33445,-4.33473 -10.99147,-5.09693 -4.6968,-0.76872 -24.16159,-0.85944 -24.65443,-0.11486 -0.50478,0.76261 -0.43361,44.74595 0.0731,45.23144 0.28068,0.26886 2.08664,0.3855 5.96927,0.3855 3.88262,0 5.68857,-0.11669 5.96924,-0.3855 z m 1.16699,-23.37126 c -1.02975,-0.42723 -1.17117,-1.25044 -1.04345,-6.07424 0.13976,-5.27848 0.15587,-5.29945 4.19654,-5.46065 5.38463,-0.21483 8.89692,1.33642 9.83789,4.34502 0.81953,2.62029 -0.42896,5.21223 -3.12847,6.49485 -1.34036,0.63685 -2.24518,0.78611 -5.36513,0.88498 -2.06408,0.0654 -4.0879,-0.02 -4.49738,-0.18996 z m 47.52418,23.27701 c 0.31784,-0.36687 0.45775,-5.70668 0.59464,-22.69703 0.17181,-21.3199 0.15409,-22.23478 -0.43866,-22.64998 -0.45806,-0.32085 -2.03109,-0.43266 -6.08689,-0.43266 -5.02206,0 -5.52403,0.0525 -6.1399,0.64248 -0.65771,0.63005 -0.67069,1.07082 -0.67069,22.74421 0,16.7619 0.0972,22.19486 0.40241,22.48723 0.64726,0.62003 11.79401,0.53489 12.33909,-0.0942 z M 91.103676,188.64035 c 1.017177,-3.81305 3.419188,-9.74402 5.393319,-13.31704 l 1.849294,-3.34708 -1.091028,-0.86124 c -3.731136,-2.94528 -7.520285,-6.98603 -9.623467,-10.26241 -0.595431,-0.9276 -1.148465,-1.68655 -1.228963,-1.68655 -0.08049,0 -1.346921,0.57825 -2.814269,1.28498 -1.467366,0.70674 -3.055763,1.28498 -3.529765,1.28498 -1.134549,0 -2.506564,-1.43239 -2.506564,-2.61687 0,-1.21268 0.737685,-1.86388 4.005532,-3.53597 2.243104,-1.14774 2.701603,-1.51084 2.574501,-2.03892 -1.035224,-4.30103 -1.541728,-7.01227 -1.545367,-8.27208 -0.0046,-1.87174 9.28e-4,-1.8709 -5.716268,-0.69455 -3.796771,0.78112 -4.091748,0.79952 -4.880511,0.30445 -0.955378,-0.59966 -1.585945,-1.91701 -1.312577,-2.74212 0.370621,-1.11858 1.437275,-1.56398 6.345219,-2.64953 5.456707,-1.20692 5.390385,-1.16385 5.610805,-3.64476 l 0.111543,-1.25493 -19.447826,0.11243 c -21.505904,0.12429 -20.633251,0.0335 -21.29487,2.21534 -0.254369,0.83884 -0.335158,9.06284 -0.265383,27.01442 l 0.100384,25.80845 0.791699,0.61403 c 0.762649,0.5915 1.654923,0.61404 24.322525,0.61404 h 23.530844 z m 110.499884,-0.48187 c -2.01089,-5.56414 -5.93405,-12.21366 -9.06061,-15.35721 l -0.97616,-0.98144 2.0984,-1.33429 c 3.54213,-2.2523 7.34426,-5.3283 10.49335,-8.48933 2.83413,-2.84489 4.55123,-5.1523 4.13256,-5.55336 -0.10253,-0.0982 -1.52953,-0.53825 -3.17113,-0.9779 -11.59555,-3.10542 -11.87153,-3.20566 -11.87153,-4.3112 0,-2.57829 1.21164,-2.62325 13.00712,-0.48276 2.4506,0.4447 4.59141,0.72818 4.75734,0.62995 0.40348,-0.23889 1.33938,-4.42175 1.43876,-6.43036 l 0.0795,-1.60623 -5.03027,-0.0926 c -2.76664,-0.0509 -6.74947,0.0451 -8.85072,0.2133 -2.10125,0.16819 -4.00489,0.23799 -4.23031,0.15512 -0.76399,-0.28083 -1.14732,-1.56391 -0.71657,-2.39844 0.30642,-0.59368 0.92977,-0.89699 2.73761,-1.33212 3.96783,-0.95499 7.87503,-1.52998 11.84538,-1.74317 2.42733,-0.13032 3.85828,-0.34086 3.95482,-0.58187 0.45286,-1.13048 -2.17985,-9.90742 -4.81883,-16.06506 -1.50672,-3.51569 -1.51243,-3.54354 -1.11917,-5.46118 2.03952,-9.94512 2.47347,-15.22682 2.03241,-24.735954 -0.32264,-6.955963 -0.59956,-8.870632 -1.86947,-12.926211 -0.62915,-2.009232 -1.13679,-2.956651 -2.10858,-3.935264 -2.02279,-2.036935 -3.01345,-1.815744 -8.88668,1.984166 -5.53325,3.579925 -16.2078,11.787596 -19.31123,14.84839 -1.67938,1.656316 -2.42406,1.799915 -5.23492,1.009462 -2.8584,-0.803821 -9.50492,-1.774709 -14.81633,-2.164305 -7.54938,-0.553748 -16.99768,0.269225 -24.51556,2.135359 -3.37037,0.83662 -3.79426,0.735781 -6.36344,-1.513775 -6.56215,-5.745743 -21.95706,-16.372637 -24.33867,-16.800639 -2.577435,-0.463188 -3.66734,0.467123 -5.077742,4.334217 -1.689857,4.633298 -1.974112,7.332821 -1.963825,18.650425 0.0093,9.827589 0.06341,10.757389 0.9281,15.838979 l 0.918603,5.39849 -1.061097,2.63266 c -2.17707,5.40137 -3.134163,8.20463 -4.189263,12.27003 -0.59611,2.29692 -1.015701,4.28463 -0.932389,4.41713 0.08327,0.13252 1.161174,0.24212 2.39529,0.24358 4.919186,0.007 13.817483,1.56417 15.741713,2.75693 0.8824,0.54695 0.99417,1.78368 0.22756,2.51804 -0.6381,0.61127 -1.44983,0.62284 -9.711196,0.13845 -3.509898,-0.2058 -6.943068,-0.27329 -7.629237,-0.14997 -1.209905,0.21743 -1.247605,0.26589 -1.247605,1.60386 0,1.42546 1.16097,6.26683 1.597522,6.66191 0.135801,0.12288 2.812338,-0.26526 5.947884,-0.86253 7.603762,-1.44841 10.250932,-1.6793 11.002222,-0.95963 0.31206,0.29895 0.56739,0.87221 0.56739,1.27391 0,1.50031 -1.16319,1.98908 -10.060534,4.22748 -2.489983,0.62643 -4.658986,1.26361 -4.819992,1.41594 -0.641274,0.60673 3.10155,4.83617 7.612086,8.60179 3.48636,2.91057 7.67332,6.04232 8.37981,6.26792 0.22279,0.0711 -0.32015,0.88178 -1.25012,1.86646 -2.03456,2.15426 -4.32121,5.49073 -5.55751,8.109 -1.20007,2.54149 -2.863931,7.09691 -3.159411,8.64995 l -0.229194,1.20468 h 51.649865 51.64988 z m -60.77105,-32.53942 c -3.47868,-0.83175 -7.27859,-3.5818 -7.82363,-5.66207 -0.30289,-1.15602 0.14643,-2.34112 1.03455,-2.72875 1.31126,-0.57232 2.44396,-0.0654 3.75257,1.67952 2.06387,2.75192 5.08791,3.59432 7.97818,2.22245 1.88908,-0.89665 2.64623,-2.02024 2.80117,-4.15693 l 0.12918,-1.78145 -1.44831,-0.65567 c -2.14246,-0.96992 -3.46985,-3.16591 -3.47114,-5.74254 l -9.3e-4,-1.95418 1.34142,-0.64249 c 1.89203,-0.90623 10.13264,-0.94988 11.83555,-0.0627 1.44144,0.75097 1.83609,1.77864 1.39955,3.6446 -0.63255,2.70379 -1.81139,4.16414 -4.10136,5.0807 -1.13209,0.45312 -1.25246,0.61732 -1.24746,1.70187 0.0132,2.86896 2.69183,5.20098 5.98514,5.21066 2.27685,0.007 3.77796,-0.79891 5.59804,-3.00429 1.22131,-1.47986 1.49443,-1.6485 2.66994,-1.6485 1.05714,0 1.40267,0.15906 1.7931,0.82539 1.54794,2.64186 -3.16585,6.85434 -8.67412,7.7516 -2.69241,0.43857 -5.06962,-0.12679 -7.72167,-1.83643 l -1.7551,-1.13141 -1.13579,0.82987 c -2.54871,1.86223 -6.2247,2.70968 -8.93883,2.06073 z M 121.4228,140.04573 c -2.27404,-0.69845 -4.9726,-3.18433 -6.16886,-5.68263 -0.84889,-1.77283 -0.96858,-2.39683 -0.97426,-5.07969 -0.007,-2.81599 0.0811,-3.22898 1.09749,-5.20677 1.97187,-3.83696 5.25085,-5.64446 9.62884,-5.30783 3.70091,0.28458 6.23594,1.97462 7.94228,5.29489 1.03008,2.0044 1.09978,2.3532 1.10503,5.53006 0.005,2.98586 -0.0981,3.60169 -0.86301,5.15758 -1.17184,2.38365 -2.2654,3.55096 -4.33971,4.63247 -2.13627,1.11381 -5.09746,1.37767 -7.4278,0.66192 z m 7.07884,-11.86805 c 2.35744,-1.1678 1.55448,-4.34871 -1.09777,-4.34871 -2.56104,0 -3.45632,3.59345 -1.11994,4.49521 1.01827,0.39302 1.14556,0.38461 2.21771,-0.1465 z m 46.97319,12.05569 c -5.12005,-1.49735 -8.02256,-5.95586 -7.6195,-11.70423 0.33221,-4.73798 1.84182,-7.20359 5.45326,-8.90673 1.99674,-0.94163 2.35023,-1.00572 4.79901,-0.86992 4.28188,0.23745 6.89755,2.13647 8.49511,6.16754 1.07831,2.72088 1.05807,6.93032 -0.0464,9.64077 -1.73719,4.26335 -6.88667,6.89934 -11.08154,5.67257 z m 5.67523,-12.41738 c 1.78889,-1.44194 1.11107,-3.95444 -1.21788,-4.51438 -2.0023,-0.48141 -3.6612,1.70332 -2.80204,3.69025 0.7453,1.72363 2.46629,2.07645 4.01992,0.82413 z m 76.46149,62.30695 c 0.69031,-0.84066 0.69504,-1.02594 0.69504,-27.14021 v -26.29379 l -0.97834,-1.04911 -0.97835,-1.04912 -18.65269,-0.0907 -18.65271,-0.0907 0.22234,1.69694 c 0.1223,0.93333 0.32657,1.80754 0.45397,1.9427 0.12739,0.13515 2.63215,0.73728 5.56611,1.33803 4.24589,0.86939 5.45614,1.23623 5.93069,1.79763 0.78758,0.93171 0.75365,1.96205 -0.0989,3.00018 -0.87257,1.06264 -2.11114,1.09711 -7.20487,0.2005 -2.01834,-0.35527 -3.83491,-0.58526 -4.03684,-0.51109 -0.20192,0.0742 -0.46727,1.26836 -0.58968,2.65374 -0.12243,1.38538 -0.50551,3.64654 -0.85137,5.0248 l -0.62882,2.50594 3.94195,1.89293 c 2.16807,1.04112 4.03685,2.12982 4.15283,2.41934 0.66191,1.65234 -0.50372,3.68632 -2.11253,3.68632 -0.51333,0 -2.50189,-0.71709 -4.41906,-1.59353 -3.20802,-1.46657 -3.51965,-1.54977 -3.91116,-1.04405 -0.23397,0.30221 -1.30969,1.70597 -2.39047,3.11945 -2.58409,3.37954 -6.05028,6.79249 -9.52055,9.37433 l -0.93447,0.69524 1.40839,2.19325 c 1.98075,3.08458 4.04395,7.3536 5.64005,11.67 0.75134,2.03188 1.4354,3.87503 1.52013,4.09589 0.12117,0.31586 5.01777,0.40156 22.94412,0.40156 h 22.79009 z M 85.63737,124.54586 c 0.665755,-1.89611 1.588239,-4.4594 2.049977,-5.6962 l 0.839535,-2.24872 -0.843471,-5.13994 c -0.746819,-4.55091 -0.84724,-6.18909 -0.876251,-14.295425 -0.05923,-16.546816 1.821043,-24.808084 6.640013,-29.173968 1.832407,-1.660119 1.845878,-1.665662 4.04896,-1.665662 4.030577,0 9.040127,2.166775 17.461527,7.552621 2.62169,1.676674 4.86064,3.048494 4.97545,3.048494 0.11483,0 0.20873,-4.331187 0.20873,-9.624862 0,-9.487595 -0.0101,-9.634206 -0.73393,-10.27987 -0.72156,-0.643963 -1.06786,-0.654926 -20.540273,-0.65027 -15.158787,0.0036 -20.003055,0.09889 -20.64471,0.406025 -0.461107,0.220711 -1.102223,0.905242 -1.424708,1.521184 -0.531969,1.016035 -0.586399,2.449001 -0.586881,15.451844 l -5.2e-4,14.331944 -0.884096,0.846924 -0.884106,0.846925 H 59.275084 c -14.772181,0 -15.190269,0.01708 -16.039587,0.657102 -0.479636,0.361402 -1.027322,1.192628 -1.217087,1.847168 -0.475783,1.641054 -0.471892,32.719846 0.0038,34.028306 0.194177,0.53358 0.684624,1.12362 1.089898,1.31117 0.493603,0.22846 7.43438,0.34626 21.025596,0.35688 l 20.288772,0.0158 z m 171.30185,2.99031 c 0.52073,-0.25795 1.03935,-0.80005 1.1525,-1.20467 0.11319,-0.40462 0.20556,-8.18055 0.20535,-17.27983 -3.9e-4,-17.701344 0.0194,-17.485389 -1.71044,-18.715281 -0.83765,-0.59558 -1.63788,-0.632668 -16.05642,-0.74408 -16.43152,-0.126944 -16.39338,-0.122739 -17.09389,-1.887756 -0.16455,-0.414569 -0.38887,-7.147001 -0.49851,-14.960955 -0.12523,-8.929704 -0.33006,-14.441162 -0.55124,-14.837059 -0.82501,-1.476697 -1.59644,-1.539217 -18.9922,-1.539217 -14.27189,0 -16.46383,0.06405 -17.11369,0.500085 -0.73817,0.49529 -0.74531,0.581353 -0.74531,8.977384 v 8.477299 l 3.563,-2.270081 c 6.55946,-4.179192 13.43764,-6.755514 16.55715,-6.201727 2.54654,0.45207 5.12022,3.458785 7.03771,8.221884 1.40568,3.491703 1.96251,6.277025 2.52954,12.652902 0.76189,8.566807 0.52943,16.340652 -0.71565,23.932832 -0.93379,5.69389 -0.96075,6.87038 -0.20026,8.74022 0.38034,0.93515 1.25106,3.2543 1.93492,5.15365 l 1.24339,3.45341 h 19.25364 c 16.22371,0 19.40263,-0.0738 20.20041,-0.46901 z M 173.18547,83.778248 c 0.61359,-0.472294 2.0588,-1.733026 3.21156,-2.801625 l 2.09595,-1.9429 -9.3e-4,-20.729646 c -9.2e-4,-19.715001 -0.032,-20.778072 -0.6311,-21.71909 -1.35101,-2.122317 -0.61971,-2.062389 -25.16731,-2.062389 -24.44842,0 -23.87053,-0.04567 -25.16515,1.988456 -0.66157,1.039458 -0.67682,1.563267 -0.67805,23.28463 l -9.3e-4,22.221251 1.40177,1.149393 c 1.67336,1.372089 1.98328,1.390136 7.43105,0.432542 3.70526,-0.651301 5.05956,-0.713853 14.80947,-0.684034 10.07667,0.03082 10.97671,0.08179 14.75546,0.836072 5.47508,1.092847 6.54977,1.096551 7.93886,0.02729 z"
       id="path28" /><path
       style="fill:#fea622;fill-opacity:1;stroke:#171210;stroke-width:1.57268;stroke-linejoin:round"
       d="m 99.573284,190.4704 c 0,-0.11863 0.745916,-2.25433 1.657586,-4.74604 1.75844,-4.80602 3.74877,-8.30754 6.70729,-11.7999 0.99648,-1.17627 1.80208,-2.33072 1.79024,-2.56542 -0.0114,-0.2347 -1.4885,-1.46573 -3.28146,-2.73562 -3.75694,-2.66088 -11.228882,-9.49587 -12.114984,-11.08219 -0.57614,-1.03142 -0.310109,-1.15846 6.281104,-2.99934 3.7855,-1.05726 7.14887,-2.17726 7.47419,-2.48889 0.85294,-0.81706 0.72726,-2.18007 -0.27445,-2.97645 -0.73017,-0.5805 -2.11642,-0.48432 -8.843173,0.61356 l -7.97728,1.30198 -0.486033,-1.83083 c -1.147927,-4.32409 -1.23173,-5.28953 -0.497407,-5.73039 0.399724,-0.23997 4.636585,-0.29056 9.415245,-0.11242 8.036698,0.29956 8.716098,0.2549 9.056758,-0.5955 0.97229,-2.42718 -3.03745,-4.04246 -12.398836,-4.99471 -3.382407,-0.34406 -6.149821,-0.8256 -6.149821,-1.07012 0,-1.25061 2.423772,-9.2636 4.093809,-13.53419 l 1.899889,-4.85834 -0.905764,-6.08404 c -1.331547,-8.94405 -0.940912,-28.091986 0.668122,-32.749811 1.339792,-3.878448 2.476699,-5.215798 4.434041,-5.215798 2.25772,0 14.18748,7.928077 23.84576,15.847028 3.71404,3.04517 3.99782,3.081887 11.67491,1.510386 7.1249,-1.458472 22.25542,-1.581879 29.27505,-0.238774 2.50398,0.479108 5.75783,0.997124 7.23078,1.151167 l 2.67806,0.280068 4.28491,-3.660005 c 5.53925,-4.731398 16.65348,-12.794449 20.14625,-14.615493 l 2.72753,-1.422065 1.41782,0.997229 c 4.55551,3.204124 6.20991,22.096461 3.32725,37.995498 l -1.04747,5.77726 2.05876,5.25405 c 3.08545,7.87418 4.6592,13.7092 3.82988,14.20018 -0.3695,0.21875 -2.76262,0.54341 -5.31805,0.72143 -2.55543,0.17801 -6.31119,0.73086 -8.34614,1.22852 -4.00043,0.97834 -5.28581,2.06083 -4.27305,3.59854 0.53279,0.80898 1.47407,0.8799 9.50438,0.71609 l 8.91302,-0.1818 v 1.62212 c 0,1.39327 -1.00643,6.18121 -1.29929,6.18121 -0.0555,0 -2.72467,-0.46178 -5.93148,-1.02617 -3.20681,-0.56439 -7.08159,-1.02617 -8.61066,-1.02617 -2.43041,0 -2.8196,0.14481 -3.0944,1.1514 -0.17287,0.63327 -0.0202,1.41398 0.33924,1.73491 0.67368,0.60148 5.09987,2.03973 10.9641,3.56271 1.84118,0.47816 3.3476,1.15719 3.3476,1.50894 0,1.17854 -7.05902,7.95909 -11.86537,11.39729 l -4.75676,3.40273 1.26924,1.31985 c 3.01594,3.13617 8.31354,12.36114 9.22907,16.07102 l 0.3482,1.41098 h -51.20911 c -28.16499,0 -51.209096,-0.097 -51.209096,-0.21566 z m 48.916636,-35.94627 2.58608,-1.17609 2.42329,1.29744 c 4.58701,2.4559 10.88428,1.31378 14.49855,-2.62956 0.95741,-1.04458 1.74074,-2.21865 1.74074,-2.60904 0,-1.64498 -0.69515,-2.33298 -2.3572,-2.33298 -1.29045,0 -2.19282,0.49115 -3.69809,2.01285 -2.44565,2.47233 -4.46016,2.98598 -7.06572,1.80158 -1.74313,-0.79239 -3.48299,-2.93775 -3.48299,-4.29477 0,-0.2922 0.9421,-1.12851 2.09355,-1.85845 3.09628,-1.96283 4.48471,-5.9709 2.77076,-7.99852 -0.8971,-1.06127 -1.56235,-1.22833 -5.50978,-1.38361 -2.46922,-0.0971 -5.50335,0.0848 -6.74252,0.40454 -2.1948,0.56613 -2.25299,0.63702 -2.25104,2.74198 0.003,2.53999 1.55395,5.2619 3.47825,6.10178 2.13542,0.93204 1.48471,4.82966 -0.99525,5.9613 -3.21705,1.46802 -4.70686,1.10936 -8.19845,-1.97369 -2.55352,-2.25476 -2.51386,-2.23977 -3.9628,-1.49695 -2.30733,1.18291 -0.77415,4.94189 2.90379,7.11937 3.76539,2.22925 7.34544,2.32441 11.76883,0.31282 z M 129.032,139.61054 c 3.43072,-1.66151 5.36182,-5.30857 5.34436,-10.09331 -0.0201,-5.51233 -2.8047,-9.45524 -7.5402,-10.67675 -4.87865,-1.25844 -9.6895,0.94138 -11.80241,5.39676 -1.28534,2.71033 -1.28534,7.56017 0,10.27048 1.15093,2.42692 4.31171,5.24136 6.37559,5.67699 0.80471,0.16986 1.70414,0.3732 1.99872,0.45185 0.93355,0.24927 4.23399,-0.35286 5.62394,-1.02602 z m 52.22686,0.34944 c 2.75757,-1.20003 5.4685,-4.1647 5.92098,-6.47512 0.19496,-0.99553 0.26112,-3.39258 0.14703,-5.3268 -0.34569,-5.86072 -3.27747,-9.00465 -9.00275,-9.6542 -3.44783,-0.39117 -7.0332,1.21522 -8.97012,4.019 -2.11433,3.06058 -2.36157,8.57268 -0.55418,12.35452 2.43064,5.08587 7.60293,7.1959 12.45904,5.0826 z"
       id="path29" /><path
       style="fill:#fea622;fill-opacity:1;stroke:#171210;stroke-width:1.57268;stroke-linejoin:round"
       d="m 166.2571,83.660513 c -5.17436,-1.022338 -25.21066,-1.178331 -31.40944,-0.24453 -4.54192,0.684202 -4.66126,0.67515 -6.35803,-0.482237 l -1.72925,-1.179537 0.2186,-22.24518 c 0.21836,-22.222488 0.21982,-22.246357 1.41825,-23.394619 l 1.19965,-1.149429 h 22.34721 c 12.29097,0 22.99922,0.174966 23.79612,0.388813 1.07886,0.289506 1.59109,0.879212 2.00556,2.308878 0.33997,1.172662 0.55782,9.516336 0.55963,21.434794 l 0.003,19.514726 -2.81196,2.643311 c -1.5466,1.453821 -3.41454,2.756367 -4.15101,2.894553 -0.73648,0.138177 -3.02622,-0.08207 -5.08833,-0.489543 z"
       id="path30" /><path
       style="fill:#fea622;fill-opacity:1;stroke:#171210;stroke-width:1.57268;stroke-linejoin:round"
       d="m 42.729996,126.72819 c -0.590428,-0.6815 -0.7336,-4.1562 -0.727484,-17.65559 0.0071,-15.757678 0.07085,-16.87404 1.020335,-17.879083 0.982318,-1.039792 1.474061,-1.071978 16.379472,-1.071978 14.206834,0 15.433662,-0.07083 16.253181,-0.938303 0.77999,-0.825628 0.886436,-2.647247 0.886436,-15.169714 0,-14.015877 0.193777,-15.809017 1.820923,-16.849789 0.324128,-0.207329 9.559066,-0.380493 20.522074,-0.384814 19.163187,-0.0075 19.954137,0.03045 20.487187,0.98458 0.50083,0.896431 0.84296,18.504769 0.35954,18.504769 -0.10722,0 -3.27474,-1.847948 -7.03899,-4.106558 -6.84504,-4.107126 -12.01733,-6.15513 -15.544969,-6.15513 -3.595261,0 -6.958098,4.190339 -8.888335,11.075525 -1.559135,5.561454 -2.079026,27.182215 -0.825554,34.332425 l 0.809521,4.61776 -1.950095,5.7722 -1.950095,5.77221 H 63.904118 c -18.358925,0 -20.513834,-0.0863 -21.174122,-0.84851 z"
       id="path31" /><path
       style="fill:#fea622;fill-opacity:1;stroke:#171210;stroke-width:1.57268;stroke-linejoin:round"
       d="m 43.200027,190.13187 c -0.87361,-0.48742 -0.937323,-2.33055 -0.937323,-27.11504 0,-22.72855 0.113996,-26.6827 0.784637,-27.21585 0.568298,-0.45182 6.106254,-0.703 20.085485,-0.91104 l 19.300847,-0.28722 v 1.29845 c 0,1.67927 -0.76069,2.24138 -4.02422,2.97369 -7.524216,1.68835 -8.724129,2.43294 -7.774922,4.82454 0.709255,1.78699 2.249108,2.03301 6.737693,1.07639 2.188183,-0.46635 4.222165,-0.70364 4.519983,-0.52733 0.297808,0.17632 0.550053,1.05733 0.560543,1.95781 0.01049,0.90049 0.352471,2.97379 0.759928,4.60734 l 0.740851,2.9701 -1.965061,1.18198 c -1.080778,0.65009 -2.491032,1.44902 -3.133903,1.77539 -1.629226,0.82713 -2.040007,2.44247 -1.005674,3.95467 1.043598,1.52574 2.123188,1.5721 5.388203,0.23142 1.374484,-0.5644 2.665685,-1.02617 2.86933,-1.02617 0.203645,0 1.411303,1.36942 2.683676,3.04318 1.272374,1.67375 3.815134,4.42456 5.650567,6.11291 l 3.337168,3.06973 -2.257939,4.49241 c -1.241868,2.47082 -2.946885,6.64411 -3.788899,9.27399 l -1.53094,4.78157 -23.03135,-0.01 c -14.655295,-0.007 -23.372244,-0.20017 -23.96868,-0.53295 z"
       id="path32" /><path
       style="fill:#fea622;fill-opacity:1;stroke:#171210;stroke-width:1.57268;stroke-linejoin:round"
       d="m 210.67223,188.25437 c -1.93268,-5.03747 -3.59791,-8.70345 -5.48697,-12.0795 l -1.94715,-3.47989 3.26031,-2.78203 c 1.79317,-1.53012 4.66098,-4.53382 6.3729,-6.67488 1.71192,-2.14105 3.37278,-3.78082 3.6908,-3.64395 5.37712,2.31443 7.344,2.87219 8.33568,2.3638 0.58711,-0.30101 1.22745,-1.1578 1.42296,-1.90399 0.41833,-1.59667 -1.00909,-2.90678 -5.23089,-4.80101 -1.43578,-0.64419 -2.60569,-1.4204 -2.59979,-1.72491 0.0204,-1.05793 1.45469,-9.05507 1.6587,-9.24875 0.11293,-0.1072 1.28985,0.007 2.61548,0.25139 3.50138,0.64821 7.72069,0.58599 8.46269,-0.12479 1.03683,-0.99322 0.74639,-2.89022 -0.56238,-3.67326 -0.66282,-0.39654 -3.01283,-1.12621 -5.22223,-1.62147 -5.14316,-1.15287 -5.89175,-1.54505 -5.89175,-3.0866 v -1.26466 h 18.25889 18.25889 l 1.00536,1.15444 c 0.95473,1.0963 1.00356,2.4334 0.96979,26.55211 -0.0195,13.96871 -0.20314,25.97489 -0.40795,26.68038 l -0.37237,1.28272 -22.82691,0.13373 -22.82694,0.13376 z"
       id="path33" /><path
       style="fill:#fea622;fill-opacity:1;stroke:#171210;stroke-width:1.57268;stroke-linejoin:round"
       d="m 215.93215,122.8297 c -1.94854,-5.30215 -2.0375,-6.64292 -0.9277,-13.98059 0.92008,-6.08334 1.02557,-17.808606 0.22291,-24.776535 -0.88587,-7.690305 -3.58668,-14.447992 -6.91273,-17.296369 -2.10501,-1.802701 -6.42881,-1.394757 -11.90729,1.123435 -2.53315,1.164367 -5.95452,2.943553 -7.60305,3.953744 l -2.99732,1.836714 v -7.843817 c 0,-5.416635 0.19889,-8.03434 0.64275,-8.45952 0.95199,-0.911953 33.59696,-0.875145 34.90253,0.03935 0.83655,0.585969 0.97677,2.242508 1.32951,15.705836 0.34707,13.248166 0.50242,15.126527 1.29711,15.683171 0.63441,0.444379 5.44999,0.739319 16.19822,0.992083 8.41247,0.197853 15.65096,0.490416 16.08553,0.650159 0.43456,0.159743 0.96882,0.899925 1.18721,1.644832 0.21839,0.744907 0.39709,8.808937 0.39709,17.920077 0,14.16677 -0.11635,16.63613 -0.80342,17.0522 -0.46738,0.28302 -8.8684,0.48939 -20.08549,0.4934 l -19.28207,0.007 z"
       id="path34" /><path
       style="fill:#fea622;fill-opacity:1;stroke:#171210;stroke-width:1.57268;stroke-linejoin:round"
       d="m 243.78734,244.31454 c -5.31457,-1.1372 -12.98887,-5.16286 -12.98887,-6.81348 0,-0.89577 6.00513,-7.37458 6.60611,-7.12718 10.22445,4.20907 12.53858,4.66626 15.40596,3.0437 2.89905,-1.64048 2.69421,-3.96094 -0.50152,-5.68148 -1.12462,-0.60549 -4.19507,-1.82691 -6.82323,-2.71429 -6.18058,-2.08682 -8.14674,-3.07999 -10.24138,-5.17325 -4.33577,-4.33298 -4.56584,-10.59924 -0.59461,-16.19509 4.03805,-5.69004 14.46764,-7.85996 23.00687,-4.78668 3.51112,1.26364 7.42103,3.82139 7.42103,4.85462 0,0.81669 -3.92058,5.97515 -4.94551,6.50699 -0.37314,0.19362 -2.36562,-0.30781 -4.42772,-1.11431 -2.06211,-0.80647 -4.74115,-1.47307 -5.95343,-1.48129 -2.86265,-0.0194 -5.02664,1.53187 -5.02664,3.60344 0,1.72172 1.46637,2.59507 8.56981,5.10402 6.26565,2.21305 8.20257,3.29102 10.59845,5.89841 6.0918,6.62955 3.02092,17.02344 -6.18099,20.9206 -3.93768,1.66766 -9.40847,2.12156 -13.92433,1.15527 z"
       id="path35" /><path
       style="fill:#fea622;fill-opacity:1;stroke:#171210;stroke-width:1.57268;stroke-linejoin:round"
       d="m 210.71671,238.7877 c -0.20023,-2.61032 -0.28299,-12.66256 -0.1839,-22.33833 0.1531,-14.95011 0.30083,-17.66529 0.98358,-18.07836 0.88461,-0.53518 9.58618,-0.68663 10.93626,-0.19035 0.75396,0.27717 0.84642,2.66365 0.83992,21.67782 -0.004,11.75151 -0.15265,21.88586 -0.33027,22.52082 -0.30964,1.10675 -0.56169,1.15444 -6.10226,1.15444 h -5.77929 z"
       id="path36" /><path
       style="fill:#fea622;fill-opacity:1;stroke:#171210;stroke-width:1.57268;stroke-linejoin:round"
       d="m 162.58593,240.39656 c -0.43524,-3.98889 -0.45747,-38.27319 -0.0261,-40.33898 0.31683,-1.5175 0.35974,-1.53428 4.68661,-1.83283 2.40178,-0.16572 8.10277,-0.10928 12.66886,0.12531 9.64706,0.49575 13.2459,1.50312 16.90156,4.73106 3.23658,2.85788 4.73284,6.41283 4.71693,11.20681 -0.016,4.7946 -1.14749,7.40323 -4.92767,11.3598 -1.52067,1.59164 -2.76487,3.31093 -2.76487,3.82064 0,0.5097 1.82501,3.64726 4.05557,6.97233 2.23056,3.32507 3.90351,6.28126 3.71768,6.56931 -0.19625,0.30418 -2.77443,0.52373 -6.15041,0.52373 -6.78001,0 -5.90671,0.58934 -12.07951,-8.15186 -3.53565,-5.00676 -3.73314,-5.18834 -5.64344,-5.18834 -1.08877,0 -2.24179,0.30267 -2.56227,0.67259 -0.32249,0.37223 -0.65077,3.29361 -0.7351,6.54183 l -0.15241,5.86924 -5.67972,0.14486 -5.67973,0.14487 z m 23.23858,-20.72993 c 4.25633,-2.10845 4.19725,-7.93668 -0.10178,-10.03761 -2.41893,-1.18214 -9.59601,-1.4066 -10.52934,-0.3293 -0.86059,0.99332 -1.36887,8.08178 -0.69803,9.73424 0.56303,1.38688 0.65125,1.41098 5.16538,1.41098 3.05747,0 5.11774,-0.26015 6.16375,-0.77831 z"
       id="path37" /><path
       style="fill:#fea622;fill-opacity:1;stroke:#171210;stroke-width:1.57268;stroke-linejoin:round"
       d="m 130.56056,227.15683 c -0.14262,-12.34808 -0.35725,-16.57013 -0.86722,-17.05853 -0.42289,-0.405 -2.70252,-0.72693 -6.06316,-0.85624 -5.12967,-0.19736 -5.40913,-0.26681 -5.88356,-1.4622 -0.87656,-2.20854 -0.608,-7.6146 0.43986,-8.85422 0.93247,-1.10313 1.04242,-1.10871 18.7902,-0.95474 20.78674,0.18033 19.37158,-0.24329 19.37158,5.7988 0,5.09148 -0.20455,5.25648 -6.80229,5.48715 -3.00479,0.10502 -5.65607,0.37532 -5.89174,0.60064 -0.23567,0.2253 -0.549,7.8369 -0.69629,16.91468 l -0.26781,16.50503 -5.97003,0.14457 -5.97002,0.14458 z"
       id="path38" /><path
       style="fill:#fea622;fill-opacity:1;stroke:#171210;stroke-width:1.57268;stroke-linejoin:round"
       d="m 74.399485,242.78955 c 0,-0.58886 11.958209,-35.86842 14.469442,-42.6883 0.346028,-0.93972 1.085393,-1.74208 1.76654,-1.91706 2.286152,-0.58732 12.449013,-0.33914 13.366923,0.3264 1.14304,0.82879 15.38858,41.90098 15.38858,44.3678 0,0.54431 -1.26483,0.65849 -6.02445,0.54387 l -6.02445,-0.14506 -1.13801,-3.07851 -1.13802,-3.07851 -8.054269,-0.14139 -8.054287,-0.14138 -1.163125,3.34816 -1.163114,3.34817 h -6.11588 c -4.986344,0 -6.11588,-0.13744 -6.11588,-0.74419 z m 26.973735,-16.71471 c 0.47487,-0.41956 -2.435269,-10.52896 -3.688416,-12.81308 l -0.703753,-1.28271 -0.602858,1.5057 c -0.944746,2.35956 -3.767862,11.63679 -3.767862,12.38179 0,1.15126 7.493989,1.32939 8.762889,0.2083 z"
       id="path39" /><path
       style="fill:#fea622;fill-opacity:1;stroke:#171210;stroke-width:1.57268;stroke-linejoin:round"
       d="m 48.154446,244.71852 c -11.653096,-1.86863 -19.304727,-11.04695 -19.344838,-23.2046 -0.0501,-15.1852 12.679404,-26.46522 27.31758,-24.20696 5.591741,0.86265 11.851693,4.11181 13.456628,6.98451 0.70288,1.2581 0.597711,1.43825 -2.701046,4.6266 -1.887827,1.82464 -3.828663,3.31753 -4.312975,3.31753 -0.484306,0 -1.455372,-0.42913 -2.157921,-0.95363 -2.635503,-1.96755 -4.695606,-2.638 -8.07983,-2.62953 -4.368468,0.011 -7.034769,1.40413 -9.246971,4.83174 -1.363399,2.11247 -1.655769,3.15074 -1.811551,6.43326 -0.552957,11.6516 10.03177,17.19152 20.320787,10.63566 l 1.388572,-0.88476 3.565848,3.13002 c 1.961215,1.72152 3.565847,3.4265 3.565847,3.78884 0,1.11079 -4.426545,4.64114 -7.65222,6.10294 -3.844313,1.74216 -10.345393,2.66379 -14.30791,2.02838 z"
       id="path40" /><path
       style="fill:#e8443c;fill-opacity:1;stroke:#171210;stroke-width:1.84682;stroke-linejoin:round"
       d="m 165.87628,82.553648 c -1.55672,-0.283967 -10.38732,-0.453384 -19.62356,-0.376469 -11.63291,0.09687 -17.00755,-0.06536 -17.49084,-0.528014 -0.82166,-0.786516 -0.63152,-43.442414 0.19913,-44.671858 0.73949,-1.094505 46.67402,-1.094505 47.4135,0 0.27987,0.414234 0.59942,9.864187 0.71014,20.999901 l 0.20126,20.246753 -2.96297,2.498412 c -3.06387,2.583488 -3.63924,2.708232 -8.44666,1.831275 z"
       id="path41" /><path
       style="fill:#e8443c;fill-opacity:1;stroke:#171210;stroke-width:1.84682;stroke-linejoin:round"
       d="m 217.77035,124.59443 c -2.18813,-5.01663 -2.42506,-7.47563 -1.57659,-16.36226 0.98054,-10.269876 0.5374,-24.887513 -0.9135,-30.132805 -0.54998,-1.988325 -1.87122,-5.330153 -2.93606,-7.426295 -3.72096,-7.324674 -7.61481,-7.791513 -19.04262,-2.283034 l -6.85393,3.303757 0.37183,-6.290091 c 0.20452,-3.459553 0.54587,-6.559802 0.75854,-6.889442 0.61002,-0.945519 32.06862,-0.798324 32.87059,0.1538 0.34929,0.414706 0.81853,6.43906 1.04421,13.406096 0.51593,15.927463 0.68636,17.090587 2.60664,17.789967 0.82034,0.298774 7.93923,0.725282 15.81977,0.947773 7.88055,0.222509 14.82358,0.64858 15.42897,0.946844 1.00837,0.496765 1.10071,1.948971 1.10071,17.30976 v 16.76747 l -2.91817,0.38318 c -1.605,0.21072 -10.11064,0.38314 -18.9014,0.38314 h -15.98321 z"
       id="path42" /><path
       style="fill:#e8443c;fill-opacity:1;stroke:#171210;stroke-width:1.84682;stroke-linejoin:round"
       d="m 210.79708,185.46901 c -0.94034,-2.38621 -2.67074,-6.18619 -3.84531,-8.4444 l -2.13559,-4.10585 3.0521,-2.82314 c 1.67864,-1.55274 4.30951,-4.25213 5.84635,-5.99866 l 2.79426,-3.17551 3.73487,1.26242 c 4.34436,1.46843 6.34616,1.00965 7.03301,-1.6119 0.57043,-2.17715 -0.20859,-3.21015 -4.03452,-5.34992 -2.9444,-1.64675 -3.22718,-1.99517 -3.17855,-3.91639 0.0294,-1.15985 0.23378,-2.91566 0.45426,-3.90181 l 0.40086,-1.79299 5.13654,0.18645 c 4.8586,0.17635 5.19116,0.10659 6.1457,-1.28892 1.84051,-2.69083 0.0658,-4.84934 -4.99956,-6.08067 -5.57496,-1.35522 -6.60426,-1.6994 -6.60426,-2.20831 0,-0.35691 6.75614,-0.5793 17.59937,-0.5793 h 17.59937 l 0.48371,1.65694 c 0.52447,1.79651 0.68634,51.09204 0.16922,51.53356 -0.17295,0.14768 -10.13069,0.42792 -22.12829,0.62274 l -21.8138,0.35422 z"
       id="path43" /><path
       style="fill:#25a5d2;fill-opacity:1;stroke:#171210;stroke-width:1.84682;stroke-linejoin:round"
       d="m 164.61832,81.391777 c -2.24859,-0.242117 -10.93471,-0.471914 -19.30249,-0.510645 l -15.21415,-0.07046 -0.43007,-2.747362 c -0.57223,-3.655326 -0.0456,-39.24807 0.58966,-39.85665 0.61137,-0.585651 44.1435,-0.641339 44.75323,-0.05725 0.24057,0.230442 0.58946,9.117294 0.77534,19.748561 l 0.33796,19.329585 -1.50915,1.547548 c -1.54754,1.58693 -4.51196,3.312604 -5.40902,3.148739 -0.27662,-0.0505 -2.34271,-0.289974 -4.59131,-0.532099 z"
       id="path44" /><path
       style="fill:#4bbe55;fill-opacity:1;stroke:#171210;stroke-width:1.84682;stroke-linejoin:round"
       d="m 44.641022,125.98099 -1.415198,-0.54491 0.0096,-16.13685 c 0.0055,-9.0945 0.269455,-16.531261 0.604992,-17.040624 0.494181,-0.75018 3.263103,-0.954977 16.292877,-1.20504 8.633636,-0.165693 15.897888,-0.49386 16.14278,-0.729273 1.039095,-0.998804 1.490316,-6.351544 1.516041,-17.984349 0.01968,-8.923595 0.247222,-12.674707 0.813614,-13.415568 0.716639,-0.937395 2.511949,-1.014247 20.284497,-0.868311 l 19.498275,0.160105 0.17551,7.983405 c 0.0965,4.39087 0.0482,7.9834 -0.10748,7.9834 -0.15562,0 -2.64042,-1.401501 -5.52181,-3.114448 -10.48804,-6.235028 -16.305145,-7.42383 -20.218936,-4.132021 -2.837979,2.386974 -5.287346,7.804562 -6.164136,13.634053 -0.877922,5.837 -0.919884,28.373111 -0.06034,32.391541 0.553887,2.58942 0.409091,3.55025 -1.248459,8.28466 l -1.875019,5.35553 -18.655859,-0.0383 c -10.260723,-0.021 -19.2927,-0.28341 -20.071058,-0.58311 z"
       id="path45" /><path
       style="fill:#fff4d4;fill-opacity:1;stroke:#171210;stroke-width:1.84682;stroke-linejoin:round"
       d="m 52.860852,189.4223 -8.919783,-0.1904 -0.405067,-3.14695 c -0.646685,-5.02407 -0.08657,-48.49589 0.633287,-49.15011 0.345937,-0.31441 8.971776,-0.76809 19.168532,-1.00817 16.586596,-0.39056 18.455599,-0.33963 17.742507,0.48346 -0.438391,0.50598 -2.73858,1.37577 -5.111552,1.93284 -3.997604,0.93846 -6.954909,2.60528 -6.954909,3.92 0,1.43143 1.614521,3.68277 2.854926,3.981 0.759714,0.18266 3.008277,0.0439 4.996806,-0.30816 4.197155,-0.74324 4.727805,-0.55876 4.727805,1.64363 0,0.89394 0.266876,2.51677 0.593074,3.6063 0.576029,1.92401 0.505752,2.03241 -2.445301,3.77184 -3.333779,1.96501 -4.160233,3.61083 -2.991985,5.95831 0.940262,1.88935 3.7351,2.29777 6.941564,1.01437 2.143928,-0.85811 2.261542,-0.837 3.230843,0.58013 0.553265,0.80887 2.87295,3.36656 5.154869,5.68377 l 4.148926,4.21309 -1.770253,3.75908 c -0.973646,2.06749 -2.52605,5.92815 -3.449787,8.57924 l -1.679516,4.82017 -13.772606,0.0234 c -7.574927,0.0129 -17.786498,-0.0622 -22.69238,-0.16692 z"
       id="path46" /><path
       style="fill:#fff4d4;fill-opacity:1;stroke:#171210;stroke-width:1.84682;stroke-linejoin:round"
       d="m 46.494869,243.17263 c -1.834365,-0.48281 -3.957162,-1.1901 -4.717324,-1.57176 -10.119907,-5.08107 -14.465496,-18.19626 -9.854672,-29.74186 2.001889,-5.01276 7.672499,-10.43532 12.875392,-12.31217 7.287707,-2.62892 17.704575,-0.75981 22.502667,4.03767 l 1.702317,1.7021 -3.11758,2.94154 -3.117577,2.94154 -3.239209,-1.68885 c -3.859102,-2.01203 -9.729835,-2.33272 -13.004857,-0.71037 -3.74578,1.85553 -6.443086,6.67169 -6.443086,11.5044 0,11.14429 9.823552,17.2497 19.86444,12.34588 1.328652,-0.64889 2.599074,-1.1798 2.823159,-1.1798 0.224088,0 1.733259,1.11795 3.353714,2.48434 2.804187,2.36453 2.895075,2.53854 1.884504,3.60823 -4.538723,4.8043 -14.631509,7.45 -21.511888,5.63911 z"
       id="path47" /><path
       style="fill:#fff4d4;fill-opacity:1;stroke:#171210;stroke-width:1.84682;stroke-linejoin:round"
       d="m 75.931084,241.83444 c -0.0037,-1.01059 14.013312,-41.47972 14.608084,-42.17647 0.961531,-1.1264 11.436652,-1.02518 12.634282,0.12208 0.79104,0.75777 13.43,36.30188 14.52544,40.84935 l 0.39912,1.65692 h -4.99324 -4.99325 l -1.02459,-2.95499 -1.02458,-2.95499 -7.045423,-0.41758 c -10.495958,-0.62208 -10.587049,-0.59805 -11.99475,3.16433 l -1.18352,3.16323 h -4.953025 c -2.724162,0 -4.953712,-0.20335 -4.954548,-0.45188 z m 25.003356,-14.38838 c 1.72439,-0.44269 1.81029,-1.89664 0.41746,-7.06477 -1.362254,-5.05467 -3.390723,-9.42605 -4.373996,-9.42605 -0.877356,0 -2.01081,2.63991 -4.037634,9.40404 -1.57047,5.24114 -1.608087,6.69434 -0.182534,7.05121 1.683869,0.42153 6.590114,0.44287 8.176704,0.0356 z"
       id="path48" /><path
       style="fill:#fff4d4;fill-opacity:1;stroke:#171210;stroke-width:1.84682;stroke-linejoin:round"
       d="m 131.66832,226.60316 c -0.24165,-8.62575 -0.5907,-16.06098 -0.77569,-16.52274 -0.47439,-1.18425 -1.49079,-1.45633 -7.12064,-1.9061 l -4.9612,-0.39634 -0.37547,-1.9172 c -0.44748,-2.2849 0.18968,-5.87453 1.15283,-6.49485 0.84546,-0.5445 27.79007,-0.50798 32.13615,0.0436 l 3.14489,0.3991 v 3.91639 3.91639 l -5.96667,0.60253 -5.96667,0.60251 -0.4441,2.41009 c -0.24425,1.32555 -0.46286,7.42607 -0.48581,13.55672 -0.0229,6.13065 -0.2202,12.57009 -0.43835,14.30987 l -0.39662,3.16323 h -4.53166 -4.53164 z"
       id="path49" /><path
       style="fill:#fff4d4;fill-opacity:1;stroke:#171210;stroke-width:1.84682;stroke-linejoin:round"
       d="m 163.68504,239.72561 c -0.20977,-1.40839 -0.29787,-10.96588 -0.19579,-21.23886 l 0.18561,-18.67815 3.45936,-0.37015 c 1.90267,-0.20358 7.49571,-0.14209 12.429,0.13664 6.95439,0.39293 9.68083,0.79987 12.13516,1.81129 5.51756,2.27375 8.78933,7.22519 8.7578,13.25388 -0.0173,3.29931 -1.56835,6.5923 -4.92843,10.46318 -1.43301,1.65085 -2.60548,3.57584 -2.60548,4.27773 0,0.70191 1.55672,3.74982 3.45937,6.77314 1.90266,3.02334 3.45937,5.63986 3.45937,5.8145 0,0.17464 -2.12279,0.31751 -4.71732,0.31751 -5.41936,0 -5.56729,-0.0925 -9.76428,-6.10587 -3.79187,-5.43292 -5.59987,-7.14958 -7.53004,-7.14958 -3.39904,0 -4.07038,1.16576 -4.30884,7.4823 l -0.21796,5.77315 h -4.61808 -4.61806 z m 24.5751,-20.51931 c 1.14731,-1.27835 1.51237,-2.38014 1.49725,-4.5189 -0.0215,-3.03892 -0.65448,-4.18752 -3.12488,-5.67031 -3.45511,-2.07387 -11.40154,-1.97796 -12.59149,0.15198 -0.33376,0.59741 -0.66989,3.11151 -0.74694,5.58689 -0.19733,6.33911 0.11635,6.60303 7.54224,6.34561 5.56965,-0.19306 5.99312,-0.30117 7.42382,-1.89527 z"
       id="path50" /><path
       style="fill:#fff4d4;fill-opacity:1;stroke:#171210;stroke-width:1.84682;stroke-linejoin:round"
       d="m 211.79158,221.54863 c 0,-11.40573 0.17179,-21.16657 0.38177,-21.69075 0.29969,-0.74811 1.36497,-0.95307 4.95398,-0.95307 h 4.57219 l 0.27775,9.18845 c 0.15275,5.05365 0.14994,14.81449 -0.007,21.69076 l -0.284,12.5023 h -4.94771 -4.94771 z"
       id="path51" /><path
       style="fill:#fff4d4;fill-opacity:1;stroke:#171210;stroke-width:1.84682;stroke-linejoin:round"
       d="m 240.21098,241.96814 c -4.46914,-1.64723 -7.66319,-3.61538 -7.66319,-4.72199 0,-0.40725 1.11244,-1.78104 2.47207,-3.05283 2.66499,-2.49285 2.39262,-2.47998 8.36207,-0.39497 6.78497,2.36985 12.43802,1.05244 12.43802,-2.89862 0,-2.44159 -2.2516,-4.08871 -8.8322,-6.46113 -3.2078,-1.15646 -6.5949,-2.48037 -7.52688,-2.94206 -2.23628,-1.10777 -5.53494,-4.75143 -6.03726,-6.66864 -0.77509,-2.95829 0.12888,-7.46572 2.02375,-10.09087 4.25636,-5.89681 14.57231,-7.91263 22.56182,-4.40876 2.06356,0.90499 4.24648,2.0742 4.85093,2.59821 1.03837,0.90017 0.99003,1.09818 -0.87577,3.58699 -1.08615,1.44881 -2.16556,2.6342 -2.39869,2.6342 -0.23314,0 -2.06923,-0.54227 -4.0802,-1.20504 -6.91501,-2.27904 -11.63607,-0.94489 -11.63607,3.2883 0,2.36662 1.26742,3.319 7.32214,5.50214 8.90692,3.21153 11.90777,5.27313 13.71856,9.4247 1.90275,4.36238 0.73274,9.15134 -3.14464,12.87121 -4.82805,4.63195 -13.68501,5.83969 -21.55446,2.93916 z"
       id="path52" /></g></svg>
