<?xml version="1.0" encoding="UTF-8" standalone="no"?>
<!-- Created with Inkscape (http://www.inkscape.org/) -->

<svg
   width="100"
   height="100"
   viewBox="0 0 1000 1000"
   version="1.1"
   id="svg1"
   inkscape:version="1.4.2 (2aeb623e1d, 2025-05-12)"
   sodipodi:docname="cat.svg"
   xmlns:inkscape="http://www.inkscape.org/namespaces/inkscape"
   xmlns:sodipodi="http://sodipodi.sourceforge.net/DTD/sodipodi-0.dtd"
   xmlns="http://www.w3.org/2000/svg"
   xmlns:svg="http://www.w3.org/2000/svg">
  <sodipodi:namedview
     id="namedview1"
     pagecolor="#ffffff"
     bordercolor="#000000"
     borderopacity="0.25"
     inkscape:showpageshadow="2"
     inkscape:pageopacity="0.0"
     inkscape:pagecheckerboard="0"
     inkscape:deskcolor="#d1d1d1"
     inkscape:document-units="px"
     inkscape:zoom="16.272846"
     inkscape:cx="45.535981"
     inkscape:cy="46.54994"
     inkscape:window-width="1920"
     inkscape:window-height="1043"
     inkscape:window-x="0"
     inkscape:window-y="0"
     inkscape:window-maximized="1"
     inkscape:current-layer="layer2" />
  <defs
     id="defs1" />
  <g
     inkscape:groupmode="layer"
     id="layer2"
     inkscape:label="Layer 2">
    <path
       id="path1-2-7"
       style="fill:#171210;stroke-width:15.0386"
       d="m 272.3058,303.19923 c -2.3271,0 -7.17276,4.46332 -10.76448,9.92373 -8.15022,12.39039 -7.48882,13.45124 41.93927,66.92917 l 36.17006,39.12725 v 70.65057 c 0,75.43846 -0.0118,75.46524 -20.26254,75.46524 -4.20605,0 -7.64772,1.42918 -7.64772,3.17475 0,1.74607 6.2841,2.4489 13.95866,1.55584 l 13.9516,-1.62591 v 17.47866 17.47867 l -23.70296,10.84182 c 0,0 -21.57758,10.44213 -22.34823,16.93908 -1.39144,11.73067 47.05745,-17.49548 47.06764,-15.70713 0.0445,7.74537 0.61092,21.48742 0.61092,21.48742 -0.45723,4.31235 -30.5322,12.43898 -24.39975,21.31643 3.01125,4.35914 25.78506,-9.72995 25.74901,-4.18731 l -0.0326,5.06138 321.64715,0.15103 0.25478,-6.69855 c 0.12055,-3.16869 10.02831,0.97875 10.02831,-0.14608 0,-2.18416 -2.69125,-5.00062 -5.9803,-6.25842 -6.47296,-2.47427 -8.77169,-33.20527 -2.48355,-33.20527 1.9249,0 10.16739,2.7767 18.3137,6.16731 8.14632,3.39002 16.76522,5.51616 19.15092,4.72358 2.38571,-0.79221 -5.8567,-5.56029 -18.31371,-10.59653 l -22.6474,-9.15984 v -17.4086 -17.40861 l 14.95067,-0.3154 c 15.44533,-0.32389 14.75254,-1.25082 -3.9892,-5.36833 l -10.96147,-2.41087 0.11928,-76.36929 0.11928,-76.36933 35.76198,-38.75583 c 37.54617,-40.68875 43.52568,-54.12649 27.81879,-62.49992 -6.26793,-3.34154 -20.49895,-0.43093 -67.38703,13.76428 L 599.56015,338.9415 H 495.82712 392.09408 l -57.77642,-17.87114 c -31.77994,-9.82888 -59.68478,-17.87113 -62.01186,-17.87113 z"
       sodipodi:nodetypes="scccsssccccccssssccsscsccccccccccccscccccs" />
    <path
       d="m 304.24064,346.42245 17.94082,9.02667 c 9.86717,4.96257 33.43487,17.70469 52.37307,28.32052 40.17158,22.51793 47.27384,23.7761 47.34965,8.3819 0.0286,-6.00643 1.13392,-14.93997 2.45543,-19.85448 2.37545,-8.83021 3.2229,-8.93558 71.33406,-8.93558 h 68.92784 l 2.74392,19.85449 c 1.50756,10.91842 3.91513,20.53076 5.35408,21.36827 1.439,0.83692 26.60452,-11.74902 55.91904,-27.97709 29.31445,-16.22739 53.87153,-28.93733 54.5752,-28.23639 0.70321,0.70053 -11.98694,15.53026 -28.19875,32.95297 -29.4289,31.62669 -35.15223,41.60822 -23.86476,41.60822 5.08222,-10e-6 5.9803,10.17487 5.9803,67.79117 v 67.79817 l -22.92202,-2.47394 c -26.22127,-2.83393 -21.53807,3.24781 5.98025,7.7652 15.41528,2.53103 16.94177,3.82438 16.94177,14.34596 -4e-5,13.39192 -6.16876,14.74491 -24.38545,5.36134 -6.61777,-3.40915 -14.15247,-5.43287 -16.74473,-4.49932 -2.59212,0.93295 5.60028,6.30315 18.20816,11.93513 19.24348,8.59599 22.92202,11.86942 22.92202,20.3871 -4e-5,12.67381 -2.41149,12.65933 -21.31088,-0.13331 -21.80638,-14.76067 -22.56495,-8.96134 -0.85839,6.56674 10.00053,7.15396 18.18703,14.48737 18.18703,16.30128 h -0.006 c 0,1.81363 -59.20018,3.30092 -131.55889,3.30092 -85.87547,0 -131.55888,-1.39188 -131.55888,-4.00873 0,-2.20491 7.10743,-8.90705 15.79499,-14.89262 8.68748,-5.98575 15.8524,-12.27332 15.94265,-13.96753 0.18882,-3.84297 -22.35952,7.52541 -25.74327,12.97934 -4.9673,8.0059 -13.97274,4.0451 -13.97274,-6.14623 0,-8.51766 3.68569,-11.79112 22.92904,-20.38716 12.60805,-5.63193 20.80035,-11.00156 18.20819,-11.9351 -2.59228,-0.93295 -10.12698,1.0974 -16.74476,4.50634 -18.28781,9.42016 -24.39247,8.03463 -24.39247,-5.53656 0,-10.48014 1.5978,-11.99626 14.95067,-14.16375 27.17076,-4.41049 33.00322,-10.14415 7.71104,-7.58296 l -23.18952,2.34777 0.8936,-74.03554 0.89349,-74.03558 -21.71187,-22.58771 c -11.93946,-12.42296 -25.22639,-26.84531 -29.52933,-32.04876 z m 115.97498,156.64927 c -2.90435,0.0317 -6.07539,0.24438 -9.49102,0.65869 -17.45586,2.11751 -19.07484,4.47537 -11.24995,16.37137 7.70572,11.71465 26.15125,13.66631 36.04344,3.81249 12.35485,-12.30683 5.02804,-21.06562 -15.30247,-20.84264 z m 147.74615,4.36521 c -4.82199,1.15311 -13.60633,0.74238 -4.3604,13.89137 7.36998,10.48136 26.07608,11.84879 35.37505,2.58606 7.94013,-7.90933 8.04921,-17.00421 0.40463,-17.23588 -9.82673,-0.2978 -26.01857,-0.53299 -31.41928,0.75848 z m -68.60958,14.77442 c -23.65914,0 -28.20952,6.09519 -15.22509,20.3871 9.08222,9.9967 4.16133,18.92671 -14.43707,26.20399 -8.77206,3.43235 -15.94971,7.75556 -15.94971,9.60837 0,9.14852 38.37724,-4.02734 42.43879,-14.57024 2.09579,-5.44059 4.01878,-4.8917 13.04403,3.72141 11.43096,10.90598 36.21227,18.31541 36.21227,10.82079 0,-2.41545 -4.31576,-5.47167 -9.58954,-6.79103 -5.27372,-1.31842 -13.55805,-6.60603 -18.41219,-11.75289 l -8.82263,-9.36309 8.39347,-10.62455 c 4.61625,-5.84602 7.41589,-12.20822 6.21947,-14.13572 -1.19578,-1.92748 -11.94156,-3.50414 -23.8718,-3.50414 z"
       style="fill:#f08c19;fill-opacity:1;stroke-width:15.0386"
       id="path1"
       sodipodi:nodetypes="cccccsccccscsscccscccscsccsscccscccssccccccccccccsccsssssccscccccss" />
    <path
       d="m 423.83053,508.78503 c 5.4817,0 9.96241,1.59572 9.96241,3.54618 0,4.57131 -8.53941,7.69415 -14.95065,5.46647 -8.69101,-3.01985 -5.37254,-9.01265 4.98824,-9.01265 z"
       style="fill:#ffffff;stroke-width:15.0386"
       id="path1-3" />
    <path
       d="m 592.94177,512.67072 c 0.096,2.62045 -4.79532,5.21922 -8.02132,5.43133 -13.92279,0.91524 -8.48392,-7.86156 -2.46706,-8.23824 3.68677,-0.0733 10.39158,0.18652 10.48838,2.80691 z"
       style="fill:#ffffff;stroke-width:15.0386"
       id="path1-7"
       sodipodi:nodetypes="zssz" />
    <rect
       style="fill:none;fill-opacity:0.30322;stroke:#ff0000;stroke-width:0.984427;stroke-dasharray:none;stroke-opacity:1"
       id="rect1"
       width="299.01556"
       height="299.01556"
       x="350.49222"
       y="350.49222" />
  </g>
  <g
     inkscape:label="Layer 1"
     inkscape:groupmode="layer"
     id="layer1" />
</svg>
